<svg width="44" height="56" viewBox="0 0 44 56" fill="none" xmlns="http://www.w3.org/2000/svg">
<path d="M38.5 31.245V22.5C38.4961 18.6036 37.1133 14.8343 34.5967 11.8596C32.0801 8.88497 28.5919 6.8969 24.75 6.2475V3.25C24.75 2.52065 24.4603 1.82118 23.9445 1.30546C23.4288 0.789731 22.7293 0.5 22 0.5C21.2707 0.5 20.5712 0.789731 20.0555 1.30546C19.5397 1.82118 19.25 2.52065 19.25 3.25V6.2475C15.4081 6.8969 11.9199 8.88497 9.40331 11.8596C6.88668 14.8343 5.50395 18.6036 5.5 22.5V31.245C3.89524 31.8124 2.50525 32.8622 1.52058 34.2506C0.535916 35.6389 0.00478366 37.2979 0 39V44.5C0 45.2293 0.289732 45.9288 0.805457 46.4445C1.32118 46.9603 2.02065 47.25 2.75 47.25H11.385C12.0183 49.5803 13.4008 51.6374 15.3191 53.104C17.2375 54.5706 19.5852 55.3652 22 55.3652C24.4148 55.3652 26.7625 54.5706 28.6809 53.104C30.5992 51.6374 31.9817 49.5803 32.615 47.25H41.25C41.9793 47.25 42.6788 46.9603 43.1945 46.4445C43.7103 45.9288 44 45.2293 44 44.5V39C43.9952 37.2979 43.4641 35.6389 42.4794 34.2506C41.4948 32.8622 40.1048 31.8124 38.5 31.245ZM11 22.5C11 19.5826 12.1589 16.7847 14.2218 14.7218C16.2847 12.6589 19.0826 11.5 22 11.5C24.9174 11.5 27.7153 12.6589 29.7782 14.7218C31.8411 16.7847 33 19.5826 33 22.5V30.75H11V22.5ZM22 50C21.0402 49.9942 20.0986 49.7373 19.2688 49.2549C18.439 48.7725 17.7499 48.0813 17.27 47.25H26.73C26.2501 48.0813 25.561 48.7725 24.7312 49.2549C23.9014 49.7373 22.9598 49.9942 22 50ZM38.5 41.75H5.5V39C5.5 38.2707 5.78973 37.5712 6.30546 37.0555C6.82118 36.5397 7.52065 36.25 8.25 36.25H35.75C36.4793 36.25 37.1788 36.5397 37.6945 37.0555C38.2103 37.5712 38.5 38.2707 38.5 39V41.75Z" fill="#808080"/>
</svg>
